<?xml version="1.0" encoding="UTF-8" standalone="no"?>
<!DOCTYPE svg PUBLIC "-//W3C//DTD SVG 1.1//EN"
 "http://www.w3.org/Graphics/SVG/1.1/DTD/svg11.dtd">
<!-- Generated by graphviz version 14.1.5 (20260411.2331)
 -->
<!-- Pages: 1 -->
<svg width="699pt" height="57pt"
 viewBox="0.00 0.00 699.00 57.00" xmlns="http://www.w3.org/2000/svg" xmlns:xlink="http://www.w3.org/1999/xlink">
<g id="graph0" class="graph" transform="scale(1 1) rotate(0) translate(4 53)">
<!-- L -->
<g id="node1" class="node">
<title>L</title>
<path fill="#fee2e2" stroke="#ef4444" d="M678.75,-38C678.75,-38 585.5,-38 585.5,-38 579.5,-38 573.5,-32 573.5,-26 573.5,-26 573.5,-12 573.5,-12 573.5,-6 579.5,0 585.5,0 585.5,0 678.75,0 678.75,0 684.75,0 690.75,-6 690.75,-12 690.75,-12 690.75,-26 690.75,-26 690.75,-32 684.75,-38 678.75,-38"/>
<text xml:space="preserve" text-anchor="middle" x="632.12" y="-20.7" font-family="Helvetica,sans-Serif" font-size="14.00" fill="#0f172a">Loss / Output (L)</text>
<text xml:space="preserve" text-anchor="middle" x="632.12" y="-5.7" font-family="Helvetica,sans-Serif" font-size="14.00" fill="#0f172a">local grad: 1.0</text>
</g>
<!-- op2 -->
<g id="node2" class="node">
<title>op2</title>
<path fill="#fef3c7" stroke="#f59e0b" d="M464.75,-38C464.75,-38 322,-38 322,-38 316,-38 310,-32 310,-26 310,-26 310,-12 310,-12 310,-6 316,0 322,0 322,0 464.75,0 464.75,0 470.75,0 476.75,-6 476.75,-12 476.75,-12 476.75,-26 476.75,-26 476.75,-32 470.75,-38 464.75,-38"/>
<text xml:space="preserve" text-anchor="middle" x="393.38" y="-20.7" font-family="Helvetica,sans-Serif" font-size="14.00" fill="#0f172a">Operation (+, *, tanh)</text>
<text xml:space="preserve" text-anchor="middle" x="393.38" y="-5.7" font-family="Helvetica,sans-Serif" font-size="14.00" fill="#0f172a">local derivative: dL/d(out)</text>
</g>
<!-- L&#45;&gt;op2 -->
<g id="edge1" class="edge">
<title>L&#45;&gt;op2</title>
<path fill="none" stroke="#ef4444" d="M573.21,-19C547.71,-19 517.09,-19 488.46,-19"/>
<polygon fill="#ef4444" stroke="#ef4444" points="488.69,-15.5 478.69,-19 488.69,-22.5 488.69,-15.5"/>
<text xml:space="preserve" text-anchor="middle" x="525.12" y="-35.7" font-family="Helvetica,sans-Serif" font-size="14.00" fill="#dc2626"> Backprop</text>
<text xml:space="preserve" text-anchor="middle" x="525.12" y="-20.7" font-family="Helvetica,sans-Serif" font-size="14.00" fill="#dc2626"> dL/dL</text>
</g>
<!-- op1 -->
<g id="node3" class="node">
<title>op1</title>
<path fill="#dbeafe" stroke="#3b82f6" d="M191.5,-38C191.5,-38 12,-38 12,-38 6,-38 0,-32 0,-26 0,-26 0,-12 0,-12 0,-6 6,0 12,0 12,0 191.5,0 191.5,0 197.5,0 203.5,-6 203.5,-12 203.5,-12 203.5,-26 203.5,-26 203.5,-32 197.5,-38 191.5,-38"/>
<text xml:space="preserve" text-anchor="middle" x="101.75" y="-20.7" font-family="Helvetica,sans-Serif" font-size="14.00" fill="#0f172a">Inputs / Weights</text>
<text xml:space="preserve" text-anchor="middle" x="101.75" y="-5.7" font-family="Helvetica,sans-Serif" font-size="14.00" fill="#0f172a">w.grad += (dL/dout) * (dout/dw)</text>
</g>
<!-- op2&#45;&gt;op1 -->
<g id="edge2" class="edge">
<title>op2&#45;&gt;op1</title>
<path fill="none" stroke="#ef4444" d="M309.77,-19C280.36,-19 246.72,-19 215.23,-19"/>
<polygon fill="#ef4444" stroke="#ef4444" points="215.26,-15.5 205.26,-19 215.26,-22.5 215.26,-15.5"/>
<text xml:space="preserve" text-anchor="middle" x="256.75" y="-35.7" font-family="Helvetica,sans-Serif" font-size="14.00" fill="#dc2626"> Chain Rule</text>
<text xml:space="preserve" text-anchor="middle" x="256.75" y="-20.7" font-family="Helvetica,sans-Serif" font-size="14.00" fill="#dc2626"> * (dout/din)</text>
</g>
</g>
</svg>
